<?xml version="1.0" standalone="no"?>
<!DOCTYPE svg PUBLIC "-//W3C//DTD SVG 20010904//EN"
 "http://www.w3.org/TR/2001/REC-SVG-20010904/DTD/svg10.dtd">
<svg version="1.0" xmlns="http://www.w3.org/2000/svg"
 width="451.000000pt" height="273.000000pt" viewBox="0 0 451.000000 273.000000"
 preserveAspectRatio="xMidYMid meet">
<metadata>
Created by potrace 1.16, written by Peter Selinger 2001-2019
</metadata>
<g transform="translate(0.000000,273.000000) scale(0.100000,-0.100000)"
fill="#000000" stroke="none">
<path d="M1375 2011 c-38 -15 -200 -76 -360 -136 -315 -119 -345 -136 -345
-197 0 -18 59 -193 130 -388 145 -395 154 -410 231 -410 65 0 107 51 99 123
-1 10 -39 119 -84 242 -46 124 -81 225 -79 225 2 0 57 -29 121 -65 427 -236
883 -365 1290 -365 527 0 1030 199 1400 555 91 87 112 117 112 166 0 46 -56
99 -104 99 -32 0 -49 -12 -143 -100 -493 -459 -1108 -609 -1789 -435 -217 56
-474 161 -686 280 -82 47 -98 60 -82 66 10 4 116 44 234 88 238 90 260 105
260 175 0 30 -7 45 -34 72 -42 42 -73 43 -171 5z"/>
</g>
</svg>
