<svg viewBox="0 0 162 75" fill="none" xmlns="http://www.w3.org/2000/svg" data-iconname="LogoMallHR10MAwidth38className" class="icon" style="height:38px;" data-v-1f8e27f6=""><path d="M152.271 57.0189C150.997 55.2826 148.956 54.3584 146.811 54.349C144.676 54.349 142.635 55.2732 141.352 57.0189C140.472 58.2231 140.05 59.7354 140.05 61.2197C140.05 62.704 140.462 64.2163 141.352 65.4112C142.626 67.1476 144.667 68.0718 146.811 68.0811C148.946 68.0811 150.988 67.1569 152.271 65.4112C153.151 64.207 153.572 62.6947 153.572 61.2197C153.572 59.7448 153.16 58.2231 152.271 57.0189ZM150.108 62.788C149.611 64.263 148.441 65.4392 146.811 65.4486C145.182 65.4486 144.011 64.263 143.515 62.788C143.356 62.3213 143.253 61.7425 143.253 61.2104C143.253 60.6783 143.356 60.0995 143.515 59.6328C144.011 58.1578 145.182 56.9816 146.811 56.9722C148.441 56.9816 149.611 58.1578 150.108 59.6328C150.267 60.0995 150.37 60.6783 150.37 61.2104C150.37 61.7425 150.267 62.3213 150.108 62.788ZM100.431 67.7357C100.431 67.9504 100.253 68.1278 100.037 68.1278H97.7712C97.5558 68.1278 97.3779 67.9504 97.3779 67.7357V49.1587C97.3779 48.944 97.5558 48.7666 97.7712 48.7666H100.037C100.253 48.7666 100.431 48.944 100.431 49.1587V67.7357ZM95.1024 67.7357C95.1024 67.9504 94.9245 68.1278 94.7091 68.1278H92.443C92.2276 68.1278 92.0497 67.9504 92.0497 67.7357V49.1587C92.0497 48.944 92.2276 48.7666 92.443 48.7666H94.7091C94.9245 48.7666 95.1024 48.944 95.1024 49.1587V67.7357ZM139.545 55.1519V56.7388C139.545 57.0936 139.32 57.2523 139.011 57.1869C136.445 56.6642 134.872 57.7937 134.872 60.1555V67.7357C134.872 67.9504 134.694 68.1278 134.479 68.1278H132.213C131.997 68.1278 131.819 67.9504 131.819 67.7357V59.9502C131.819 57.9244 132.746 56.7575 133.486 56.02C134.497 55.0118 135.977 54.349 137.634 54.349C137.878 54.349 138.786 54.3864 139.208 54.4984C139.507 54.5824 139.545 54.7411 139.545 55.1519ZM129.843 61.2197C129.843 59.7261 129.441 58.2511 128.542 57.0189C127.268 55.2826 125.227 54.3584 123.083 54.349C120.948 54.349 118.906 55.2732 117.623 57.0189C115.882 59.3994 115.872 63.0308 117.623 65.4112C118.906 67.1476 120.938 68.0718 123.083 68.0811C124.478 68.0811 125.836 67.6797 126.969 66.9142V68.5759C126.969 70.8256 124.993 71.2364 123.729 71.3204C122.877 71.3764 121.669 71.2551 121.125 71.1804C120.779 71.1244 120.535 71.1804 120.535 71.5538V73.5515C120.535 73.7009 120.648 73.8596 120.891 73.8782C123.822 74.1303 125.798 74.0743 127.296 73.2341C128.355 72.6367 129.085 71.6471 129.469 70.4896C129.74 69.6587 129.843 68.6319 129.843 67.745V61.2197ZM123.092 65.4579C121.463 65.4579 120.292 64.2723 119.796 62.7974C119.637 62.3306 119.534 61.7518 119.534 61.2197C119.534 60.6876 119.637 60.1088 119.796 59.6421C120.292 58.1671 121.463 56.9816 123.092 56.9816C126.735 56.9816 126.856 60.6876 126.856 61.2197C126.856 61.7518 126.735 65.4579 123.092 65.4579ZM89.9802 59.8568C89.9802 58.0644 89.5776 56.6828 88.7161 55.768C87.8171 54.8158 86.1128 54.3584 84.5022 54.3584C82.8916 54.3584 81.2528 54.7691 79.8857 55.5813C79.792 55.6373 79.7452 55.7306 79.7452 55.8333C79.7452 55.8333 79.7452 55.8427 79.7452 55.852C79.7452 55.852 79.8669 57.8217 79.8669 57.8311C79.8857 58.1018 80.2041 58.1858 80.4475 58.0364C82.4234 56.8042 84.7925 56.5801 85.9911 57.1869C86.8339 57.607 87.0586 58.5032 87.0586 59.082V59.3714H83.7531C82.3391 59.3714 77.9941 59.8755 77.9941 63.8803V63.9456C77.9941 65.3085 78.4623 66.4101 79.3987 67.1382C80.2696 67.8197 81.4495 68.1371 82.9197 68.1371H89.5869C89.8023 68.1371 89.9802 67.9597 89.9802 67.745V59.8568ZM87.068 65.682H83.1257C82.6013 65.6446 82.1424 65.5139 81.7304 65.1965C81.2809 64.8511 81.0749 64.4404 81.0749 63.9083C81.0749 63.1988 81.5525 61.7798 83.9497 61.7798H87.0773V65.6913L87.068 65.682ZM108.774 54.3584C104.748 54.3584 102.996 57.0562 102.416 59.334C102.257 59.9408 102.182 60.5943 102.182 61.2197C102.182 62.6947 102.594 64.2163 103.483 65.4112C104.766 67.1476 106.798 67.9971 108.943 68.0811C111.115 68.1651 112.576 67.7917 113.662 67.1662C113.878 67.0449 113.924 66.8955 113.924 66.5034V64.7484C113.924 64.3937 113.709 64.2257 113.372 64.4404C112.201 65.1872 110.787 65.6446 108.989 65.5046C107.182 65.3646 105.684 64.095 105.534 62.3026H114.486C114.683 62.3026 114.842 62.1533 114.851 61.9385C115.001 59.5021 114.299 54.3677 108.783 54.3677L108.774 54.3584ZM105.553 59.8755C105.553 58.8766 106.386 56.9816 108.774 56.9816C110.094 56.9816 111.64 57.7377 111.64 59.8755H105.543H105.553Z" fill="#FF5A00"></path><path d="M61.6911 61.089C62.5713 61.089 63.2643 61.3878 63.7512 61.9946C64.2382 62.592 64.4816 63.4508 64.4816 64.5431C64.4816 65.6353 64.2382 66.4941 63.7419 67.1102C63.2456 67.717 62.562 68.0251 61.6911 68.0251C61.251 68.0251 60.8577 67.9411 60.4925 67.7824C60.1273 67.6237 59.8276 67.3716 59.5842 67.0356H59.5093L59.2939 67.8944H58.5635V58.3818H59.5842V60.697C59.5842 61.2104 59.5654 61.6772 59.5374 62.0879H59.5842C60.0617 61.4158 60.7641 61.089 61.6911 61.089ZM61.5413 61.9385C60.8483 61.9385 60.3427 62.1346 60.043 62.536C59.734 62.9374 59.5842 63.6002 59.5842 64.5431C59.5842 65.4859 59.7434 66.1581 60.0524 66.5595C60.3708 66.9609 60.8764 67.1662 61.5694 67.1662C62.1968 67.1662 62.665 66.9422 62.9646 66.4848C63.2736 66.0274 63.4235 65.3739 63.4235 64.5244C63.4235 63.6749 63.2736 63.0028 62.9646 62.5733C62.6556 62.1439 62.1874 61.9292 61.5413 61.9292V61.9385Z" fill="#FF5A00"></path><path d="M65.1933 61.1917H66.2889L67.7591 65.0098C68.0775 65.878 68.2835 66.5128 68.3584 66.8955H68.4052C68.4614 66.6902 68.5738 66.3354 68.7423 65.8313C68.9109 65.3272 69.4634 63.7776 70.4091 61.1917H71.5047L68.6206 68.8186C68.3303 69.5747 68.0026 70.1068 67.6186 70.4242C67.2347 70.7416 66.7665 70.9003 66.214 70.9003C65.905 70.9003 65.596 70.863 65.2963 70.7976V69.9855C65.5211 70.0321 65.7739 70.0602 66.0548 70.0602C66.7571 70.0602 67.2534 69.6681 67.5531 68.8839L67.9276 67.9317L65.2214 61.1917H65.1933Z" fill="#FF5A00"></path><rect width="161.467" height="42" fill="#CC0000"></rect><path fill-rule="evenodd" clip-rule="evenodd" d="M46.7205 12.9591L46.7614 12.854C47.875 9.98941 48.8556 7.4668 51.7282 7.4668C54.7623 7.4668 55.7442 9.99259 56.8587 12.8594L56.8974 12.9591L62.7128 28.7899C63.5205 30.8899 63.6821 31.6976 63.6821 32.5053C63.6821 33.9591 62.5513 34.9283 60.7744 34.9283C58.8359 34.9283 58.1897 33.636 57.5436 32.0206L56.7359 29.5976H46.7205L45.9128 32.0206C45.4282 33.636 44.7821 34.9283 42.6821 34.9283C40.9051 34.9283 39.7744 33.9591 39.7744 32.5053C39.7744 31.536 39.9359 30.8899 40.7436 28.7899L46.7205 12.9591ZM10.859 11.6668C11.3436 8.43603 13.2821 7.78987 14.8974 7.78987C17.9667 7.78987 18.6128 9.5668 20.2282 14.413L23.1359 23.6206L26.0436 14.413C27.659 9.5668 28.3051 7.78987 31.3744 7.78987C32.9897 7.78987 34.7667 8.43603 35.4128 11.6668L37.8359 25.3976C38.3205 28.1437 38.8051 31.213 38.8051 32.1822C38.8051 33.4745 37.6744 35.0899 35.8974 35.0899C33.1513 35.0899 32.6667 33.1514 32.3436 31.0514L30.5667 19.0976L26.5282 32.3437C25.8821 34.2822 25.0744 35.0899 23.1359 35.0899C21.359 35.0899 20.3898 34.2822 19.7436 32.3437L15.7051 19.0976L13.9282 31.0514C13.6051 33.1514 13.1205 35.0899 10.3744 35.0899C8.59744 35.0899 7.46667 33.4745 7.46667 32.1822C7.46667 31.213 7.95129 28.3053 8.43591 25.3976L10.859 11.6668ZM48.659 24.1053L52.0513 14.2514L55.1205 24.1053H48.659ZM65.1359 11.0206C65.1359 8.92064 66.4282 7.78987 68.2051 7.78987C69.9821 7.78987 71.2744 8.92064 71.2744 11.0206V29.1129H77.8974C79.8359 29.1129 80.9667 30.2437 80.9667 31.8591C80.9667 33.4745 79.8359 34.6053 77.8974 34.6053H68.3667C66.7513 34.6053 65.2974 33.4745 65.2974 31.536V11.0206H65.1359ZM85.0051 7.78987C83.2282 7.78987 81.9359 8.92064 81.9359 11.0206H82.0974V31.536C82.0974 33.4745 83.5513 34.6053 85.1667 34.6053H94.6974C96.6359 34.6053 97.7667 33.4745 97.7667 31.8591C97.7667 30.2437 96.6359 29.1129 94.6974 29.1129H88.0744V11.0206C88.0744 8.92064 86.7821 7.78987 85.0051 7.78987ZM103.097 28.9514C104.874 28.9514 106.328 30.4053 106.328 32.1822C106.328 33.9591 104.874 35.4129 103.097 35.4129C101.321 35.4129 99.8667 33.9591 99.8667 32.1822C99.8667 30.4053 101.321 28.9514 103.097 28.9514ZM111.336 34.9283C113.113 34.9283 114.405 33.7976 114.405 31.6976V23.7822H125.713V31.6976C125.713 33.7976 127.005 34.9283 128.782 34.9283C130.559 34.9283 131.851 33.7976 131.851 31.6976V11.0206C131.851 8.92064 130.559 7.78987 128.782 7.78987C127.005 7.78987 125.713 8.92064 125.713 11.0206V18.2899H114.405V11.0206C114.405 8.92064 113.113 7.78987 111.336 7.78987C109.559 7.78987 108.267 8.92064 108.267 11.0206V31.6976C108.267 33.7976 109.559 34.9283 111.336 34.9283ZM134.436 11.0206C134.436 9.08218 135.89 7.95141 137.505 7.95141H144.774C150.105 7.95141 153.659 11.1822 153.659 16.1899C153.659 20.0668 151.236 22.9745 147.359 23.6206L152.69 29.2745C153.497 30.2437 153.982 30.8899 153.982 31.8591C153.982 32.6668 153.174 34.6053 150.913 34.6053C149.297 34.6053 148.813 34.1206 148.005 33.1514L140.574 23.7822V31.536C140.574 33.636 139.282 34.7668 137.505 34.7668C135.728 34.7668 134.436 33.636 134.436 31.536V11.0206ZM144.613 19.5822H140.574V13.6053H144.613C146.228 13.6053 147.682 14.736 147.682 16.5129C147.682 18.2899 146.551 19.5822 144.613 19.5822Z" fill="white"></path></svg>






