<?xml version="1.0" encoding="UTF-8"?>
<svg id="Layer_2" data-name="Layer 2" xmlns="http://www.w3.org/2000/svg" viewBox="0 0 539.21 124.94">
  <defs>
    <style>
      .cls-1 {
        fill: #3f4e91;
      }

      .cls-1, .cls-2 {
        stroke-width: 0px;
      }

      .cls-2 {
        fill: #fff;
      }
    </style>
  </defs>
  <g id="Layer_1-2" data-name="Layer 1">
    <g>
      <circle class="cls-1" cx="62.47" cy="62.47" r="62.47"/>
      <g>
        <g>
          <path class="cls-2" d="M100.98,80.33c-3.58,0-6.49,2.9-6.49,6.49s2.9,6.49,6.49,6.49,6.49-2.9,6.49-6.49-2.9-6.49-6.49-6.49ZM100.98,91.94c-2.82,0-5.11-2.28-5.11-5.11s2.28-5.11,5.11-5.11,5.11,2.28,5.11,5.11-2.28,5.11-5.11,5.11Z"/>
          <path class="cls-2" d="M102.05,87.21c1.18-.05,1.55-.78,1.55-1.63,0-.95-.4-1.72-1.64-1.72h-3.09v5.93h1.12v-2.27h.79c.39,0,.93.64,1.86,2.27h1.38c-1.04-1.74-1.57-2.44-1.99-2.58h.02ZM99.98,86.6v-1.78h1.71c.42,0,.67.29.67.92,0,.57-.25.87-.68.87h-1.69Z"/>
        </g>
        <g>
          <path class="cls-2" d="M73.2,92.08c-1.97,0-4.03-.96-6.13-2.86-3.58-5.2-4.34-19.23-2.61-48.38.19-3.21,3.74-4.67,6.95-4.67,2.68,0,5.12.95,6.38,2.48.9,1.09,1.19,2.42.9,3.97-.71,3.66-1.92,9.23-3.32,15.67-1.8,8.33-3.85,17.78-5.43,25.84-.45,2.51-.11,4.45,1.01,5.79.95,1.13,2.5,1.78,4.27,1.78h.11c-.7.25-1.41.37-2.13.37h0Z"/>
          <path class="cls-2" d="M41.92,93.07c-1.74,0-3.52-.2-5.32-.59-5.26-1.8-8.04-4.33-8.52-7.84.2.36.45.71.74,1.06,2.27,2.61,7.22,4.59,11.48,4.59.33,0,.67,0,.98-.03,3.86-.29,9.25-2.11,11.95-5.38.85-1.04,1.38-2.14,1.55-3.29.26.79.42,1.57.48,2.36.39,5.17-5.65,7.68-5.71,7.71h0c-1.8.74-3.8,1.21-5.99,1.38-.54.05-1.1.06-1.66.06h0l.02-.03Z"/>
          <path class="cls-2" d="M75.45,93.26c-1.85,0-3.55-.37-5-1.09.93.36,1.83.54,2.73.54h0c11.51,0,17.15-29.75,17.75-33.13,1.18-6.64,1.91-15.07-3.04-21.27-4.14-5.2-11.82-8.12-22.81-8.66-1.18-.06-2.34-.09-3.46-.09-17.33,0-23.45,6.94-25.28,9.92-1.07,1.75-1.54,3.37-1.6,4.7-1.21-4.36,1.35-7.93,2.41-9.4l.19-.25c3.72-3.77,13.87-8.29,27.37-9.31,2.23-.17,4.28-.25,6.27-.25,11.56,0,19.94,2.93,24.92,8.74,5,5.82,6.66,14.6,4.92,26.13-1.66,10.97-5.35,19.92-10.71,25.88-4.3,4.79-9.65,7.54-14.66,7.54h0Z"/>
          <path class="cls-2" d="M54.16,89.04c1.1-1.3,1.92-3.03,1.77-5.15-.43-5.77-5.82-10.86-11.53-16.25-6.05-5.73-12.31-11.64-12.83-18.68-.37-4.93,1.46-8.84,3.15-11.33-1.09,2.45-1.68,5.85.68,9.61,1.38,2.2,4.72,4.39,8.57,6.92,7.22,4.75,16.2,10.66,16.88,19.66.61,7.91-3.32,12.66-6.7,15.24h0l.02-.02Z"/>
          <path class="cls-2" d="M33.2,91.75c-7.23-1.8-18.14-5.96-19.09-18.28-.33-4.38.61-7.79,2.79-10.15,2.96-3.21,7.37-3.46,8.64-3.46.45,0,.88.03,1.26.08,3.38.45,5.51,1.47,6.46,3.12.82,1.41.76,3.31-.2,5.65-.5,1.23-1.21,2.59-1.96,4.02-2.33,4.47-4.95,9.53-3.17,13.9.84,2.06,2.58,3.76,5.24,5.12h.02Z"/>
        </g>
      </g>
      <path class="cls-1" d="M171.3,58.11c-2.08-.67-5.04-1.24-7.68-1.24-3.17,0-4.78.31-4.78,3.06,0,1.82,1.15,2.44,5.45,2.86,6.39.68,9.19,2.65,9.19,7.94,0,6.86-4.56,8.81-11.31,8.81-2.81,0-6.95-.51-9.45-1.4l1.35-5.09c1.92.68,5.2,1.24,7.84,1.24,3.54,0,5.2-.47,5.2-3.21,0-1.86-1.04-2.75-5.66-3.17-5.82-.47-8.92-2.08-8.92-7.53,0-6.86,4.62-8.77,11.31-8.77,2.75,0,6.24.57,8.88,1.46,0,0-1.4,5.03-1.4,5.03Z"/>
      <path class="cls-1" d="M211.75,78.75h-6.46v-24.97c3.23-1.26,8.32-1.52,12.54-1.52,7.43,0,10.77,2.2,10.77,11.72v14.77h-6.46v-13.02c0-5.88-1.09-7.63-5.66-7.63-1.66,0-3.18.2-4.73.62,0,0,0,20.03,0,20.03Z"/>
      <path class="cls-1" d="M253.65,78.13c-2.08.84-5.57,1.35-8.07,1.35-8.07,0-13.11-3.23-13.11-14.1s5.06-13.25,13.07-13.25c2.54,0,3.89.14,6.16.14v5.62c-2.02,0-3.55-.12-5.69-.12-4.69,0-6.87.39-6.87,7.73s2.23,8.38,6.92,8.38c2.23,0,4.47-.57,6.14-1.26l1.46,5.51v.02Z"/>
      <path class="cls-1" d="M265.44,57.89v11.39c0,3.27.88,4.64,4,4.64,1.72,0,3.23-.31,4.53-.73l1.15,5.09c-1.88.68-4.73,1.19-7.28,1.19-5.93,0-8.84-1.77-8.84-9.62v-11.96h-3.51v-5.62h3.51v-4.47l6.46-2.65v7.12h8.8v5.62h-8.81Z"/>
      <path class="cls-1" d="M299.86,77.15c-3.34,1.3-8.27,2.08-11.96,2.08-8.38,0-11.19-1.92-11.19-8.84,0-7.49,4.22-8.69,10.41-8.69,2.23,0,4.31.26,6.56.73,0-4.62-1.13-4.62-6.64-4.62-2.92,0-5.51.06-7.76.06v-5.62c3.2,0,5.43-.05,9.23-.05,7.85,0,11.37,1.43,11.37,9.34v15.61h-.03ZM293.67,66.8c-1.46-.31-3.34-.47-5.26-.47-3.65,0-4.95.42-4.95,3.8,0,3.58.99,4.16,4.89,4.16,1.88,0,3.8-.37,5.31-.88v-6.61h.02Z"/>
      <path class="cls-1" d="M200.41,77.15c-3.34,1.3-8.27,2.08-11.96,2.08-8.38,0-11.19-1.92-11.19-8.84,0-7.49,4.22-8.69,10.41-8.69,2.23,0,4.31.26,6.56.73,0-4.62-1.13-4.62-6.64-4.62-2.92,0-5.51.06-7.76.06v-5.62c3.2,0,5.43-.05,9.23-.05,7.85,0,11.37,1.43,11.37,9.34v15.61h-.03ZM194.22,66.8c-1.46-.31-3.34-.47-5.26-.47-3.65,0-4.95.42-4.95,3.8,0,3.58.99,4.16,4.89,4.16,1.88,0,3.8-.37,5.31-.88v-6.61h.02Z"/>
      <g>
        <path class="cls-1" d="M345.37,78.21c-2.86,1.15-7.76,1.92-11.54,1.92-8.74,0-12.74-3.12-12.74-14s4.42-14,11.5-14c3.03,0,4.95.73,6.35,1.51v-11.81h6.46v36.37h-.02ZM338.91,60.14c0-1.57-2.28-2.54-5.2-2.54-4.53,0-5.99,1.82-5.99,8.43,0,7.23,1.51,8.58,6.08,8.58,1.77,0,3.74-.31,5.11-.78v-13.69h0Z"/>
        <path class="cls-1" d="M350.37,66.03c0-10.82,4.21-13.89,12.58-13.89s12.69,3.07,12.69,13.89-4.16,14.1-12.69,14.1-12.58-3.23-12.58-14.1ZM357.02,66.13c0,7.34,1.4,8.8,5.93,8.8s6.04-1.46,6.04-8.8-1.4-8.8-6.04-8.8-5.93,1.19-5.93,8.8Z"/>
        <path class="cls-1" d="M387.05,79.39h-6.46v-24.97c3.23-1.24,8.01-2.28,12.23-2.28,2.96,0,5.2.57,6.77,1.77,2.86-1.04,6.39-1.77,9.42-1.77,7.45,0,10.41,2.96,10.41,12.49v14.77h-6.46v-14.1c0-5.88-1.04-7.34-5.31-7.34-1.3,0-3.43.2-5.15.73.47,1.57.73,3.54.73,5.93v14.77h-6.46v-14.1c0-5.88-1.04-7.34-5.31-7.34-1.41,0-3.12.26-4.42.62v20.82Z"/>
        <path class="cls-1" d="M446.32,78.67c-2.65.88-6.55,1.46-9.26,1.46-7.65,0-12.85-3.23-12.85-14.1s4.62-13.89,12.34-13.89c8.38,0,12.03,2.86,11.54,15.72h-17.12c.05,5.68,2.23,6.81,6.87,6.81,1.88,0,5.35-.47,7.43-1.1l1.04,5.11h0ZM431.02,62.91h11.14c-.2-4.69-1.57-5.68-5.26-5.68-4.05,0-5.46,1.3-5.88,5.68h0Z"/>
        <path class="cls-1" d="M459.02,79.39h-6.46v-24.97c3.23-1.24,8.32-2.28,12.54-2.28,7.43,0,10.77,2.96,10.77,12.49v14.77h-6.46v-14.1c0-5.88-1.1-7.34-5.68-7.34-1.66,0-3.17.2-4.73.62v20.81h.02Z"/>
        <path class="cls-1" d="M488.56,45.06c0,3.07-.88,3.58-3.69,3.58s-3.74-.53-3.74-3.58c0-2.76.88-3.18,3.74-3.18s3.69.42,3.69,3.18ZM488.05,79.4h-6.46v-26.47h6.46v26.47Z"/>
        <path class="cls-1" d="M514.16,78.76c-2.08.84-5.57,1.35-8.07,1.35-8.07,0-13.11-3.23-13.11-14.1s5.11-13.89,13.11-13.89h6.73v5.59c-1.88,0-4.13.03-6.27.03-4.69,0-6.92,1.04-6.92,8.38s2.23,8.38,6.92,8.38c2.23,0,4.47-.57,6.14-1.24l1.46,5.51h0Z"/>
        <path class="cls-1" d="M539.19,78.04c-3.34,1.3-8.27,2.08-11.96,2.08-8.38,0-11.19-1.92-11.19-8.84,0-7.49,4.22-8.69,10.41-8.69,2.23,0,4.31.26,6.56.73,0-4.62-1.54-5.56-7.06-5.56-2.92,0-4.33-.05-6.72-.05v-5.59h8.52c7.85,0,11.45,2.39,11.45,10.3v15.61h-.02ZM533,67.69c-1.46-.31-3.34-.47-5.26-.47-3.65,0-4.95.42-4.95,3.8,0,3.58.99,4.16,4.89,4.16,1.88,0,3.8-.37,5.31-.88v-6.61h.02Z"/>
      </g>
      <path class="cls-1" d="M386.41,92.09h-6.43c-1.24,0-2.3.97-2.3,2.25v18.16c0,1.27,1.06,2.25,2.3,2.25h6.43c3.92,0,5.85-1.52,5.85-5.79v-1.5c0-2.12-.55-3.65-1.33-4.04.8-.44,1.33-1.81,1.33-4.04v-1.5c0-3.97-1.86-5.79-5.85-5.79M388.65,100.54c0,.62-.51,1.12-1.13,1.12h-3.9v3.51h3.9c.62,0,1.13.5,1.13,1.12v3.83c0,.62-.51,1.12-1.13,1.12h-6.04c-.23,0-.26,0-.26-.32v-15.02c0-.31.03-.32.26-.32h6.04c.62,0,1.13.5,1.13,1.12v3.83ZM415.54,104.45v5.67c0,2.56-2.09,4.63-4.67,4.63h-5.07c-2.59,0-4.68-2.07-4.68-4.63v-13.4c0-2.56,2.09-4.63,4.67-4.63h5.34c.91,0,1.65.73,1.65,1.64v.23c0,.9-.74,1.64-1.65,1.64h-5.28c-.12,0-.21.02-.21.02-.52.1-.92.56-.92,1.1v13.45c0,.55.4,1,.92,1.1,0,0,.1.02.18.02h5.13c.12,0,.21-.02.21-.02.52-.1.92-.56.92-1.1v-5.04h-4.55v-3.5s6.17,0,6.17,0h.23c.89,0,1.61.72,1.61,1.6v1.23ZM449.02,92.09h-5.46c-2.59,0-4.58,2.08-4.58,4.63v16.43c0,.88.73,1.6,1.62,1.6h.23c.89,0,1.61-.71,1.61-1.6v-6.81s.07,0,.1,0h7.68s0,6.81,0,6.81c0,.88.72,1.6,1.61,1.6h.23c.89,0,1.61-.71,1.61-1.6v-16.43c0-2.56-2.08-4.63-4.66-4.63M450.23,102.91h-7.68s-.07,0-.1,0v-6.26c0-.54.4-1,.92-1.1.03-.01.1-.02.18-.02h5.6c.08,0,.14,0,.18.02.52.1.92.56.92,1.1v6.25ZM470.9,96.71l.02,16.35c0,.93-.76,1.68-1.7,1.68h-.24c-.94,0-1.7-.75-1.7-1.68v-16.35c0-.62-.5-1.12-1.12-1.12h-6.04c-.23,0-.25,0-.25.31v17.2c-.01.9-.75,1.64-1.66,1.64h-.24c-.91,0-1.65-.73-1.65-1.64v-18.77c0-1.27,1.07-2.25,2.31-2.25h7.61c2.58,0,4.67,2.07,4.67,4.63M398.29,93.72v19.38c0,.9-.74,1.64-1.65,1.64h-.23c-.91,0-1.65-.73-1.65-1.64v-19.38c0-.91.74-1.64,1.65-1.64h.23c.91,0,1.65.73,1.65,1.64M430.6,92.09h-6.43c-1.23,0-2.29.97-2.29,2.25v18.16c0,1.27,1.06,2.25,2.29,2.25h6.43c3.92,0,5.85-1.52,5.85-5.79v-1.5c0-2.12-.55-3.65-1.32-4.04.8-.44,1.32-1.81,1.32-4.04v-1.5c0-3.97-1.86-5.79-5.85-5.79M432.85,100.54c0,.62-.51,1.12-1.14,1.12h-3.9v3.51h3.9c.63,0,1.14.5,1.14,1.12v3.83c0,.62-.51,1.12-1.14,1.12h-6.04c-.23,0-.26,0-.26-.32v-15.02c0-.31.02-.32.26-.32h6.04c.63,0,1.14.5,1.14,1.12v3.83ZM487.95,110.12c0,2.56-2.09,4.63-4.67,4.63h-5.06c-2.59,0-4.68-2.07-4.68-4.63v-13.4c0-2.56,2.09-4.63,4.67-4.63h5.35c.91,0,1.65.73,1.65,1.64v.23c0,.9-.74,1.64-1.65,1.64h-5.28c-.12,0-.22.02-.22.02-.52.1-.92.56-.92,1.1v13.45c0,.55.4,1,.92,1.1,0,0,.1.02.18.02h5.12c.12,0,.21-.02.21-.02.52-.1.92-.56.92-1.1v-5.04h-4.56v-3.5s6.17,0,6.17,0h.23c.89,0,1.61.72,1.61,1.6v6.9Z"/>
      <g>
        <path class="cls-1" d="M354.43,101.79v5.68h.05c.39-.52,1.23-1.26,2.71-1.26,2.31,0,3.93,1.87,3.93,4.25s-1.52,4.32-3.98,4.32c-1.15,0-2.23-.51-2.78-1.45h-.03v1.21h-1.92v-12.75h2.02ZM356.74,107.86c-1.48,0-2.38,1.37-2.38,2.63s.89,2.6,2.38,2.6c1.57,0,2.33-1.37,2.33-2.63s-.76-2.6-2.33-2.6Z"/>
        <path class="cls-1" d="M361.86,106.44h2.24l2.26,5.88h.03l2.01-5.88h2.11l-3.83,9.83c-.57,1.48-1.26,2.31-3.07,2.31-.34,0-.69-.03-1.05-.12l.17-1.75c.27.08.54.12.76.12.88,0,1.1-.4,1.43-1.26l.4-1.03-3.47-8.09Z"/>
      </g>
    </g>
  </g>
</svg>